# Tiled2Unity generated file. Do not modify by hand.
# Wavefront file for 'untitled_mesh_0001.obj'

# Vertices (Count = 20)
v 0 -0.16 0
v -0.16 -0.16 0
v -0.16 0 0
v 0 0 0
v -0.16 -0.16 0
v -0.32 -0.16 0
v -0.32 0 0
v -0.16 0 0
v -0.32 -0.16 0
v -0.48 -0.16 0
v -0.48 0 0
v -0.32 0 0
v -0.48 -0.16 0
v -0.64 -0.16 0
v -0.64 0 0
v -0.48 0 0
v -0.64 -0.16 0
v -0.8 -0.16 0
v -0.8 0 0
v -0.64 0 0

# Texture cooridinates (Count = 10)
vt 0.36 0.9130435
vt 0.4 0.9130435
vt 0.4 0.9565217
vt 0.36 0.9565217
vt 0.44 0.9130435
vt 0.44 0.9565217
vt 0.36 0.7391304
vt 0.4 0.7391304
vt 0.4 0.7826087
vt 0.36 0.7826087

# Normal
vn 0 0 -1

# Mesh description
g untitled_mesh_0001

# Faces
f 1/1/1 2/2/1 3/3/1 4/4/1
f 5/2/1 6/5/1 7/6/1 8/3/1
f 9/2/1 10/5/1 11/6/1 12/3/1
f 13/2/1 14/5/1 15/6/1 16/3/1
f 17/7/1 18/8/1 19/9/1 20/10/1

